<svg width="21" height="21" viewBox="0 0 21 21" fill="none" xmlns="http://www.w3.org/2000/svg">
<path opacity="0.987" fill-rule="evenodd" clip-rule="evenodd" d="M9.2617 0.0911664C10.3885 -0.0303888 11.0552 -0.0303888 12.2659 0.0911664C14.409 0.397448 16.3957 1.35397 17.9387 2.82241C16.896 3.77404 15.867 4.73957 14.8521 5.71872C12.9083 4.128 10.7387 3.76083 8.34319 4.61722C6.58593 5.39758 5.36228 6.66215 4.67223 8.41094C3.54458 7.60032 2.43162 6.77082 1.33386 5.92281C1.25757 5.88404 1.17043 5.86984 1.08519 5.8823C2.82897 2.63582 5.55396 0.704945 9.26015 0.0896657" fill="#F44336"/>
<path opacity="0.997" fill-rule="evenodd" clip-rule="evenodd" d="M1.0821 5.88271C1.17017 5.86971 1.25358 5.88322 1.33232 5.92323C2.43008 6.77124 3.54304 7.60074 4.67069 8.41136C4.49324 9.09276 4.38138 9.78853 4.33654 10.4898C4.37488 11.1681 4.48626 11.8339 4.67069 12.4872L1.16602 15.1809C-0.360177 12.1015 -0.388152 9.00213 1.0821 5.88271Z" fill="#FFC107"/>
<path opacity="0.999" fill-rule="evenodd" clip-rule="evenodd" d="M17.7721 18.443C16.6808 17.5138 15.5384 16.6421 14.3498 15.8318C15.5413 15.0195 16.2645 13.9049 16.5194 12.4883H10.6804V8.57302C14.0478 8.54601 17.4136 8.57353 20.7779 8.65556C21.4161 12.0021 20.6789 15.0195 18.5663 17.7077C18.3151 17.9655 18.049 18.2109 17.7721 18.443Z" fill="#448AFF"/>
<path opacity="0.993" fill-rule="evenodd" clip-rule="evenodd" d="M4.67106 12.4878C5.94549 15.5462 8.28193 16.9738 11.6804 16.7707C12.6344 16.6641 13.549 16.3423 14.3505 15.8313C15.5399 16.6437 16.6807 17.5141 17.7728 18.4425C16.0424 19.9439 13.8362 20.8347 11.5141 20.9696C10.9865 21.0104 10.4564 21.0104 9.92884 20.9696C5.97294 20.5194 3.05213 18.5896 1.1664 15.18L4.67106 12.4878Z" fill="#43A047"/>
</svg>
