<svg width="26" height="20" viewBox="0 0 26 20" fill="none" xmlns="http://www.w3.org/2000/svg">
<path d="M0 6.25V2.5C0 1.8125 0.254583 1.22396 0.76375 0.734375C1.27292 0.244792 1.885 0 2.6 0H23.4C24.115 0 24.7271 0.244792 25.2362 0.734375C25.7454 1.22396 26 1.8125 26 2.5V6.25H23.4V2.5H2.6V6.25H0ZM2.6 20C1.885 20 1.27292 19.7552 0.76375 19.2656C0.254583 18.776 0 18.1875 0 17.5V13.75H2.6V17.5H23.4V13.75H26V17.5C26 18.1875 25.7454 18.776 25.2362 19.2656C24.7271 19.7552 24.115 20 23.4 20H2.6ZM10.4 16.25C10.6383 16.25 10.8658 16.1927 11.0825 16.0781C11.2992 15.9635 11.4617 15.7917 11.57 15.5625L15.6 7.8125L17.03 10.5625C17.1383 10.7917 17.3008 10.9635 17.5175 11.0781C17.7342 11.1927 17.9617 11.25 18.2 11.25H26V8.75H19.0125L16.77 4.4375C16.6617 4.20833 16.4992 4.04687 16.2825 3.95312C16.0658 3.85937 15.8383 3.8125 15.6 3.8125C15.3617 3.8125 15.1342 3.85937 14.9175 3.95312C14.7008 4.04687 14.5383 4.20833 14.43 4.4375L10.4 12.1875L8.97 9.4375C8.86167 9.20833 8.69917 9.03646 8.4825 8.92187C8.26583 8.80729 8.03833 8.75 7.8 8.75H0V11.25H6.9875L9.23 15.5625C9.33833 15.7917 9.50083 15.9635 9.7175 16.0781C9.93417 16.1927 10.1617 16.25 10.4 16.25Z" fill="#23005B"/>
</svg>
