<svg width="26" height="23" viewBox="0 0 26 23" fill="none" xmlns="http://www.w3.org/2000/svg">
<path d="M0 14.375V11.5H10.1111V14.375H0ZM0 8.625V5.75H15.8889V8.625H0ZM0 2.875V0H15.8889V2.875H0ZM13 23V18.5797L20.9806 10.6734C21.1972 10.4578 21.438 10.3021 21.7028 10.2062C21.9676 10.1104 22.2324 10.0625 22.4972 10.0625C22.7861 10.0625 23.063 10.1164 23.3278 10.2242C23.5926 10.332 23.8333 10.4937 24.05 10.7094L25.3861 12.0391C25.5787 12.2547 25.7292 12.4943 25.8375 12.7578C25.9458 13.0214 26 13.2849 26 13.5484C26 13.812 25.9519 14.0815 25.8556 14.357C25.7593 14.6326 25.6028 14.8781 25.3861 15.0937L17.4417 23H13ZM15.1667 20.8437H16.5389L20.9083 16.4594L20.2583 15.7766L19.5722 15.1297L15.1667 19.4781V20.8437ZM20.2583 15.7766L19.5722 15.1297L20.9083 16.4594L20.2583 15.7766Z" fill="#23005B"/>
</svg>
