<svg width="29" height="29" viewBox="0 0 29 29" fill="none" xmlns="http://www.w3.org/2000/svg">
<path d="M12.035 25.81C13.1225 23.6108 14.5725 22.1427 16.385 21.4056C18.1975 20.6685 19.7442 20.3 21.025 20.3C21.5808 20.3 22.1246 20.3483 22.6562 20.445C23.1879 20.5417 23.7075 20.6625 24.215 20.8075C24.795 19.8892 25.2542 18.8983 25.5925 17.835C25.9308 16.7717 26.1 15.66 26.1 14.5C26.1 11.2617 24.9763 8.51875 22.7288 6.27125C20.4813 4.02375 17.7383 2.9 14.5 2.9C11.2617 2.9 8.51875 4.02375 6.27125 6.27125C4.02375 8.51875 2.9 11.2617 2.9 14.5C2.9 15.5875 3.03896 16.6267 3.31687 17.6175C3.59479 18.6083 4.01167 19.5267 4.5675 20.3725C5.55833 19.8892 6.58542 19.5146 7.64875 19.2487C8.71208 18.9829 9.7875 18.85 10.875 18.85C11.6483 18.85 12.3915 18.9165 13.1044 19.0494C13.8173 19.1823 14.5242 19.3575 15.225 19.575C14.6692 19.865 14.1435 20.2033 13.6481 20.59C13.1527 20.9767 12.6875 21.3875 12.2525 21.8225C11.9625 21.7742 11.7148 21.75 11.5094 21.75C11.304 21.75 11.0925 21.75 10.875 21.75C10.1017 21.75 9.33437 21.8346 8.57312 22.0038C7.81187 22.1729 7.08083 22.4267 6.38 22.765C7.15333 23.5383 8.01729 24.1848 8.97187 24.7044C9.92646 25.224 10.9475 25.5925 12.035 25.81ZM14.5 29C12.4942 29 10.6092 28.6194 8.845 27.8581C7.08083 27.0969 5.54625 26.0637 4.24125 24.7587C2.93625 23.4537 1.90312 21.9192 1.14187 20.155C0.380625 18.3908 0 16.5058 0 14.5C0 12.4942 0.380625 10.6092 1.14187 8.845C1.90312 7.08083 2.93625 5.54625 4.24125 4.24125C5.54625 2.93625 7.08083 1.90312 8.845 1.14187C10.6092 0.380625 12.4942 0 14.5 0C16.5058 0 18.3908 0.380625 20.155 1.14187C21.9192 1.90312 23.4537 2.93625 24.7587 4.24125C26.0637 5.54625 27.0969 7.08083 27.8581 8.845C28.6194 10.6092 29 12.4942 29 14.5C29 16.5058 28.6194 18.3908 27.8581 20.155C27.0969 21.9192 26.0637 23.4537 24.7587 24.7587C23.4537 26.0637 21.9192 27.0969 20.155 27.8581C18.3908 28.6194 16.5058 29 14.5 29ZM10.875 16.675C9.47333 16.675 8.27708 16.1796 7.28625 15.1887C6.29542 14.1979 5.8 13.0017 5.8 11.6C5.8 10.1983 6.29542 9.00208 7.28625 8.01125C8.27708 7.02042 9.47333 6.525 10.875 6.525C12.2767 6.525 13.4729 7.02042 14.4637 8.01125C15.4546 9.00208 15.95 10.1983 15.95 11.6C15.95 13.0017 15.4546 14.1979 14.4637 15.1887C13.4729 16.1796 12.2767 16.675 10.875 16.675ZM10.875 13.775C11.4792 13.775 11.9927 13.5635 12.4156 13.1406C12.8385 12.7177 13.05 12.2042 13.05 11.6C13.05 10.9958 12.8385 10.4823 12.4156 10.0594C11.9927 9.63646 11.4792 9.425 10.875 9.425C10.2708 9.425 9.75729 9.63646 9.33437 10.0594C8.91146 10.4823 8.7 10.9958 8.7 11.6C8.7 12.2042 8.91146 12.7177 9.33437 13.1406C9.75729 13.5635 10.2708 13.775 10.875 13.775ZM21.025 18.125C20.01 18.125 19.1521 17.7746 18.4512 17.0737C17.7504 16.3729 17.4 15.515 17.4 14.5C17.4 13.485 17.7504 12.6271 18.4512 11.9262C19.1521 11.2254 20.01 10.875 21.025 10.875C22.04 10.875 22.8979 11.2254 23.5987 11.9262C24.2996 12.6271 24.65 13.485 24.65 14.5C24.65 15.515 24.2996 16.3729 23.5987 17.0737C22.8979 17.7746 22.04 18.125 21.025 18.125Z" fill="#23005B"/>
</svg>
