<svg width="24" height="24" viewBox="0 0 24 24" fill="none" xmlns="http://www.w3.org/2000/svg">
<path d="M6.077 18C6.077 20.21 7.226 22 9.307 22C11.388 22 13.077 20.5 13.615 18C13.874 16.801 14.403 16.077 15.231 15.5C17.385 14 19 11.692 19 9C19 8.08075 18.8189 7.1705 18.4672 6.32122C18.1154 5.47194 17.5998 4.70026 16.9497 4.05025C16.2997 3.40024 15.5281 2.88463 14.6788 2.53284C13.8295 2.18106 12.9193 2 12 2C11.0807 2 10.1705 2.18106 9.32122 2.53284C8.47194 2.88463 7.70026 3.40024 7.05025 4.05025C6.40024 4.70026 5.88463 5.47194 5.53284 6.32122C5.18106 7.1705 5 8.08075 5 9" stroke="white" stroke-width="1.5" stroke-linecap="round" stroke-linejoin="round"/>
<path d="M9 15C10.385 15 11.508 13.993 11.508 12.75C11.508 11.507 10.385 10.5 9 10.5C9 8.483 9.464 6 12.01 6C13.8 6 14.85 7.374 15 9.15" stroke="white" stroke-width="1.5" stroke-linecap="round" stroke-linejoin="round"/>
</svg>
